<?xml version="1.0" encoding="UTF-8" standalone="no"?>
<!-- Created with Inkscape (http://www.inkscape.org/) -->

<svg
   xmlns:dc="http://purl.org/dc/elements/1.1/"
   xmlns:cc="http://creativecommons.org/ns#"
   xmlns:rdf="http://www.w3.org/1999/02/22-rdf-syntax-ns#"
   xmlns:svg="http://www.w3.org/2000/svg"
   xmlns="http://www.w3.org/2000/svg"
   xmlns:sodipodi="http://sodipodi.sourceforge.net/DTD/sodipodi-0.dtd"
   xmlns:inkscape="http://www.inkscape.org/namespaces/inkscape"
   id="svg2"
   version="1.1"
   inkscape:version="0.48.5 r10040"
   width="150"
   height="200"
   xml:space="preserve"
   sodipodi:docname="logo36.ai"><metadata
     id="metadata8"><rdf:RDF><cc:Work
         rdf:about=""><dc:format>image/svg+xml</dc:format><dc:type
           rdf:resource="http://purl.org/dc/dcmitype/StillImage" /><dc:title></dc:title></cc:Work></rdf:RDF></metadata><defs
     id="defs6"><clipPath
       clipPathUnits="userSpaceOnUse"
       id="clipPath16"><path
         d="M 0,400 550,400 550,0 0,0 0,400 z"
         id="path18"
         inkscape:connector-curvature="0" /></clipPath></defs><sodipodi:namedview
     pagecolor="#ffffff"
     bordercolor="#666666"
     borderopacity="1"
     objecttolerance="10"
     gridtolerance="10"
     guidetolerance="10"
     inkscape:pageopacity="0"
     inkscape:pageshadow="2"
     inkscape:window-width="951"
     inkscape:window-height="732"
     id="namedview4"
     showgrid="false"
     inkscape:zoom="1.3350176"
     inkscape:cx="107.06413"
     inkscape:cy="80.508474"
     inkscape:window-x="117"
     inkscape:window-y="31"
     inkscape:window-maximized="0"
     inkscape:current-layer="g10" /><g
     id="g10"
     inkscape:groupmode="layer"
     inkscape:label="logo36"
     transform="matrix(1.25,0,0,-1.25,0,200)"><g
       id="g12"
       transform="matrix(0.54952643,0,0,0.85359141,-93.30748,-90.146385)"><g
         id="g14"
         clip-path="url(#clipPath16)"><g
           id="g20"
           transform="translate(245.75,116.25)"><path
             d="M 0,0 C -0.4,0.367 -0.8,0.75 -1.2,1.15 -6.933,6.883 -9.8,13.833 -9.8,22 c 0,8.167 2.867,15.133 8.6,20.9 2.867,2.833 6.017,4.967 9.45,6.4 m 20.5,1.8 42.85,0 c 9.4,0 17.417,3.333 24.05,10 5.167,5.133 8.333,11.1 9.5,17.9 -6.033,3 -12.683,4.5 -19.95,4.5 l -121.45,0 c -9.8,0 -18.167,3.467 -25.1,10.4 -6.933,6.933 -10.4,15.3 -10.4,25.1 0,9.8 3.467,18.167 10.4,25.1 4.433,4.433 9.45,7.45 15.05,9.05 1.167,4.467 3.5,8.45 7,11.95 5.233,5.233 11.55,7.85 18.95,7.85 l 49.6,0 c 3.4,-0.2 6.15,-1.283 8.25,-3.25 2.1,-1.967 3.017,-4.217 2.75,-6.75 -0.267,-2.533 -1.65,-4.633 -4.15,-6.3 -2.533,-1.633 -5.35,-2.35 -8.45,-2.15 l -63.9,0 c -3.533,0 -6.883,-0.45 -10.05,-1.35 -0.6,-2.233 -0.9,-4.583 -0.9,-7.05 0,-7.433 2.633,-13.767 7.9,-19 5.233,-5.267 11.55,-7.9 18.95,-7.9 l 91.95,0 c 9.4,0 17.417,-3.317 24.05,-9.95 6.667,-6.667 10,-14.7 10,-24.1 0,-2.133 -0.167,-4.183 -0.5,-6.15 4.267,-2.133 8.217,-5.017 11.85,-8.65 8.8,-8.8 13.2,-19.417 13.2,-31.85 C 130.2,26.067 125.8,15.467 117,6.7 108.233,-2.1 97.633,-6.5 85.2,-6.5 l -58.7,0"
             style="fill:none;stroke:#000000;stroke-width:8;stroke-linecap:square;stroke-linejoin:miter;stroke-miterlimit:3;stroke-opacity:1;stroke-dasharray:none"
             id="path22"
             inkscape:connector-curvature="0" /></g><g
           id="g24"
           transform="translate(257.55,109.75)"><path
             d="m 0,0 c -4.367,1.167 -8.3,3.333 -11.8,6.5 m 15.1,51.1 13.65,0 m -20.5,-1.8 c 2,0.833 4.117,1.433 6.35,1.8 M 14.7,0 1.4,0"
             style="fill:none;stroke:#000000;stroke-width:8;stroke-linecap:round;stroke-linejoin:miter;stroke-miterlimit:3;stroke-opacity:1;stroke-dasharray:none"
             id="path26"
             inkscape:connector-curvature="0" /></g></g></g></g></svg>